<svg version="1.0" xmlns="http://www.w3.org/2000/svg" width="933.333" height="933.333" viewBox="0 0 700 700"><path d="M327.8.4c-.1.2-3.9.6-8.3 1-39.8 3.1-84 15.2-121 33.2-18 8.7-44.8 24.7-55.5 33.1-.8.6-5.1 4-9.5 7.4-35.3 27.5-67.3 65.1-89.7 105.4-4.9 8.7-14.8 28.9-14.8 30.1 0 .2-.9 2.3-2 4.7-5.7 12.3-15.7 43.5-18.6 58.2-.2 1.1-1 5.4-1.9 9.5-2.9 14.7-3.5 19.4-5.2 37-1.5 16.3-.8 59.2 1.2 71.1.2 1.3.6 4.6.9 7.4.9 7.8 2.2 15.2 5.1 28.5 2.1 9.6 9.1 33.9 11.4 39.5.5 1.1 2.5 6.5 4.6 12 6.3 16.6 24.9 53.1 31.2 61 .4.6 3.4 4.9 6.5 9.5 17.1 25.6 43.2 53.4 70.8 75.5 9.2 7.4 37 26.5 38.6 26.5.4 0 1.5.6 2.3 1.4 2.6 2.2 29.8 15.8 40.8 20.4 14.6 6 38.4 14.1 45.9 15.6 1 .2 5.7 1.3 10.4 2.5 10.9 2.6 20 4.3 29.9 5.7 2.5.3 5.7.8 7.1 1 16.3 2.5 68.2 2.5 84.2-.1 1.3-.2 4.6-.7 7.3-1 7.1-1 8.7-1.3 11.5-1.8 1.4-.3 4.3-.8 6.5-1.2 2.2-.4 7.6-1.6 12-2.7 4.4-1 8.7-2.1 9.6-2.3 22.3-5.1 59.1-20 82.3-33.4 4.9-2.8 9.1-5.1 9.3-5.1 1 0 26.8-18 35.3-24.7 15.2-11.9 32.4-28 45-42.2 3.6-4.1 7-7.9 7.6-8.5.6-.6 4.8-6.1 9.4-12.1 15-19.7 27.7-40.5 38.3-62.8 2.6-5.3 4.7-9.9 4.7-10.2 0-.2 1.1-2.8 2.4-5.7 5.7-12.7 15.1-42.1 18.2-57.3 1.7-8.1 5.4-30.1 5.9-35 .4-3.3.9-7.1 1.1-8.5.9-4.6 1.1-52.4.4-60.5-1.5-15.3-2.1-21-2.5-22.5-.2-.8-.7-3.5-1-6-1.7-12.9-8-38.4-13.6-55.2C647.1 135.1 565.2 53.1 461.5 18.2c-16.8-5.7-42-11.9-55.5-13.7-1.9-.3-4.6-.7-6-1-1.3-.2-5.2-.7-8.6-1.1-3.3-.3-7.4-.8-9-1-3.2-.5-54-1.4-54.6-1zM375 154.5c1.9.3 4.6.8 6 1.1 23.7 4 46 11.8 65.5 22.9 10.2 5.8 17.1 10.5 26.5 18 8 6.4 22.6 20.3 22 20.9-.3.2-32 13-70.5 28.4-38.5 15.4-71.1 28.5-72.5 29-1.4.6-5 2-8 3.2-3 1.1-6.4 2.5-7.5 3-1.1.4-3.5 1.4-5.3 2.2-1.8.7-3 1.7-2.8 2.3.2.5 9.9 24.7 21.4 53.6 17.1 42.5 38.8 95 46.6 112.4.8 1.6 3.5 7.9 6.1 14 2.5 6 5 11.9 5.6 13 3.6 7.9 20.9 48.9 21.1 50.1.6 3.3-27.4 12.3-49.7 15.9-7.7 1.3-12.8 1.7-26 2-17.2.4-32.8-1-44.5-4-3-.8-6.6-1.6-8-1.9-1.4-.2-6.7-1.7-11.7-3.4l-9.3-3-5.4 6.7c-2.9 3.6-6.2 7.6-7.2 8.8-1.1 1.2-2.6 3-3.4 4-18.2 22-56.2 67.3-56.5 67.3-1.2 0-21.3-12.2-30.2-18.2-31.6-21.7-59-49.1-80.2-80.3C89.9 512 79 493.6 79 492c0-.5.6-1.3 1.4-1.7 1.8-1.1 14.4-11.4 27.6-22.6 1.4-1.2 6.8-5.7 12-10 13.3-11.1 17.2-14.3 26-21.7 11-9.3 17.1-14.4 18.3-15.1 1.1-.8.9-2-3.3-15.4-8.9-28.7-10.3-67-3.6-98.4 4.6-21.5 15.7-47 29.1-67.1 29.8-44.7 80.6-77.1 133-84.7 2.2-.3 6.3-.9 9-1.3 5.8-.8 41.3-.5 46.5.5zm170.8 176.7c1.2 13.5.5 39.4-1.2 47.8-.3 1.3-.8 4.2-1.1 6.5-.3 2.2-1.7 8.3-3.1 13.5-6.9 26.7-19.8 52.5-37.2 74.5-6 7.5-23.2 24.9-28.2 28.5l-3 2.1-.9-2.3c-.8-2-8.8-20.7-12.6-29.3-.7-1.7-5.9-13.8-11.5-27-12.3-28.9-12.7-29.9-15-35-1-2.2-3.7-8.5-6-14-4.5-10.8-6.1-14.5-8.6-20.1-.9-2-1.2-4-.7-4.4.4-.5 13.6-5.6 29.3-11.5 38.4-14.4 55.9-20.9 79-29.8 10.7-4.1 19.7-7.3 19.8-7.1.2.1.7 3.5 1 7.6z"/><path d="M248.5 350.2c-18.1 6.1-33.1 11.1-33.2 11.2-.3.2 6.3 19.5 6.8 20.1.3.3 8.1-2 17.3-5.1 9.2-3 16.9-5.4 17.1-5.2.1.2-5.7 9.3-13.1 20.3-7.3 11-13.5 21.1-13.7 22.5-1.2 5.9 4.5 12.5 10.7 12.3 1.7-.1 11.1-2.8 20.8-6.1 15.7-5.3 17.6-5.8 16.7-3.9-.7 1.1-1.6 2.6-2.1 3.1-2.6 3.1-23.8 36.1-23.9 37.2-.6 5.8 0 7.5 3.2 10.5 2.1 2 4.1 2.9 6.4 2.9 3.2 0 67.1-20.5 68.9-22 .6-.6-4.5-18.9-5.8-20.7-.1-.1-7.9 2.4-17.4 5.6-9.7 3.3-17.1 5.3-16.8 4.6.2-.7 5.8-9.3 12.4-19.1C316.4 398 317 396.9 317 394c0-3.5-2.9-8.6-5.6-9.9-4.2-1.9-7.3-1.3-25.4 4.8-9.6 3.3-17.6 5.8-17.8 5.6-.2-.2 5.8-9.4 13.3-20.6 13.2-19.7 13.6-20.5 13.2-24.8-.3-2.8-1.3-5.2-2.9-6.8-4.7-4.7-7.4-4.2-43.3 7.9z"/></svg>