<svg version="1.0" xmlns="http://www.w3.org/2000/svg" width="933.333" height="933.333" viewBox="0 0 700 700"><path d="M336.7 55c-3.2 1.2-7.7 3.2-10 4.7-4.9 3-298.7 296.2-301.8 301.1-1.2 1.9-2.3 5.7-2.6 9.2-.8 8.1 2.7 15.5 9.4 19.9 2.6 1.7 5.4 3.2 6.2 3.2.9.1 3.1.2 5 .4 1.8.1 5.2-.2 7.5-.8 3.7-.9 18.8-15.6 151.9-148.6L350 96.5l146.8 146.7c80.7 80.6 148.3 147.4 150.2 148.4 2.3 1.2 5.6 1.8 9.6 1.8 12.7-.1 22.1-10.3 21.1-23-.2-3.3-1.1-7.1-1.8-8.5-.8-1.3-25-26.2-53.9-55.2-28.9-29-52.6-53-52.8-53.1-.2-.2-.4-34.1-.5-75.2-.2-71.3-.3-75.1-2.1-78.4-2.5-4.6-6.9-8.8-11.4-10.8-4.9-2-51.2-2.6-58-.6-6.3 1.8-11.1 5.9-13.7 11.8-2.2 5-2.3 5.9-2.1 34.9 0 16.3-.1 29.7-.4 29.7-.2 0-24.1-23.5-53-52.3-54.5-54.2-56.3-55.8-67-58.5-6.8-1.7-18.1-1.3-24.3.8z"/><path d="M218.8 275.3L87.5 406.6l.1 95.5c0 52.5.4 97.4.8 99.8 4.6 27.7 29 50.6 57.2 53.8 3.8.4 97.1.8 207.4.7 189.3 0 200.9-.1 208-1.8 27.1-6.5 47.3-28.5 50.8-55.1.4-3.3.7-48.1.7-99.5v-93.5L481.3 275.3 350.1 144.1 218.8 275.3z"/></svg>